<?xml version="1.0" encoding="utf-8"?>
<!-- Generator: Adobe Illustrator 26.3.1, SVG Export Plug-In . SVG Version: 6.00 Build 0)  -->
<svg version="1.1" id="Layer_1" xmlns="http://www.w3.org/2000/svg" xmlns:xlink="http://www.w3.org/1999/xlink" x="0px" y="0px"
	 viewBox="0 0 303.7 127.6" style="enable-background:new 0 0 303.7 127.6;" xml:space="preserve">
<style type="text/css">
	.st0{fill:#00AEEF;}
	.st1{display:none;enable-background:new    ;}
	.st2{display:inline;}
</style>
<path class="st0" d="M203.3,88.6c0,3.1,0,6.3,0,9.4c0,0.7-0.1,1.5-0.2,2.2c-0.6,2.5-2,4.2-4.4,5.3c-1,0.4-2.1,0.7-3.2,0.7
	c-0.1,0-0.2,0-0.3,0s-0.2-0.1-0.2-0.2c0,0,0,0,0-0.1c0-0.7,0-1.4,0-2.2c0-0.1,0-0.1,0-0.2l0.1-0.1c0.1,0,0.3,0,0.4-0.1
	c0.6,0,1.3-0.2,1.9-0.4c1.6-0.6,2.5-1.7,2.8-3.3c0.1-0.5,0.2-1,0.2-1.5c0-4,0-7.9,0-11.9c0-0.1,0-0.2,0-0.3c0,0,0,0,0-0.1h-0.1
	c-0.1,0-0.1,0.1-0.2,0.1c-0.1,0.1-0.3,0.2-0.4,0.3c-1.3,1-2.7,1.6-4.3,1.9c-4.3,0.7-8.2-1.5-10.1-5c-0.8-1.6-1.2-3.3-1.1-5.2
	c0.2-3.5,2.6-7.1,6.6-8.4c1.2-0.4,2.4-0.5,3.7-0.4c3.9,0.3,7.4,3,8.5,7.1c0.2,0.9,0.3,1.7,0.3,2.6c0,1.4,0,2.7,0,4.1
	C203.3,84.9,203.3,86.8,203.3,88.6L203.3,88.6z M193.7,85.6c3.4,0,6.7-2.7,6.6-6.9c-0.1-3.5-3-6.5-6.7-6.5s-6.6,3-6.7,6.7
	C187,82.6,190.1,85.6,193.7,85.6z"/>
<path class="st0" d="M120.7,54.5c0-8.5,0-16.9,0-25.4c0-0.3,0-0.5,0-0.8c0-0.1,0.1-0.2,0.2-0.2c0.8,0,1.6,0,2.4,0
	c0.1,0,0.2,0.1,0.2,0.2c0,0.2,0,0.4,0,0.6c0,16.6,0,33.3,0,49.9c0,0.5,0,1,0,1.6s0.1,1.2,0.3,1.8c0.4,1.2,1.1,2.1,2.2,2.6
	c0.6,0.3,1.2,0.5,1.9,0.5c0.3,0,0.5,0.1,0.8,0.1c0.1,0,0.2,0.1,0.2,0.2c0,0,0,0,0,0.1c0,0.7,0,1.5,0,2.2c0,0.2-0.1,0.3-0.3,0.3
	c-1.6,0-3.1-0.4-4.5-1.2c-1.7-1-2.8-2.6-3.3-4.5c-0.2-0.8-0.3-1.6-0.3-2.4c0-3.4,0-6.8,0-10.2C120.6,64.7,120.6,59.6,120.7,54.5
	C120.6,54.5,120.7,54.5,120.7,54.5z"/>
<path class="st0" d="M229.5,54.6c0-8.4,0-16.9,0-25.3c0-0.2,0-0.5,0-0.7c0-0.4,0.1-0.4,0.4-0.4c0.8,0,1.5,0,2.3,0
	c0.1,0,0.2,0.1,0.2,0.2c0,0.3,0,0.5,0,0.8c0,16.7,0,33.5,0,50.2c0,0.4,0,0.7,0,1.1c0,0.6,0.1,1.3,0.3,1.9c0.4,1.2,1.2,2,2.4,2.5
	c0.5,0.2,1.1,0.4,1.7,0.4c0.3,0,0.5,0.1,0.8,0.1c0.1,0,0.2,0.1,0.2,0.2c0,0,0,0,0,0.1c0,0.7,0,1.5,0,2.2c0,0.2-0.1,0.3-0.3,0.3
	c-1.1-0.1-2.2-0.2-3.2-0.6c-0.4-0.2-0.9-0.4-1.3-0.6c-1.7-1-2.8-2.6-3.3-4.5c-0.2-0.8-0.3-1.6-0.3-2.4c0-3.4,0-6.9,0-10.3
	C229.5,64.7,229.5,59.7,229.5,54.6L229.5,54.6z"/>
<path class="st0" d="M258.4,88.2c-0.7,0-1.3,0-2-0.2c-0.8-0.2-1.5-0.4-2.2-0.8c-1.7-0.8-3.1-2.2-4-3.8c-0.5-0.9-0.9-2-1.1-3
	c-1-5.4,2.6-10.1,7.3-11.1c2.3-0.5,4.4-0.2,6.5,0.9c0.9,0.5,1.7,1.1,2.5,1.7c0.3,0.2,0.5,0.5,0.7,0.8c0.1,0.1,0.1,0.3,0,0.4
	c-0.2,0.2-0.3,0.4-0.5,0.5c-3.3,3.3-6.6,6.7-10,10c-0.2,0.2-0.3,0.4-0.5,0.5c-0.1,0.1-0.1,0.2,0.1,0.3c0.3,0.2,0.7,0.4,1,0.5
	c3.1,1.2,6.5-0.1,8.1-2.8c0.6-1.1,1-2.2,0.9-3.5c0-0.8-0.1-0.6,0.5-1.2c0.5-0.5,1-1,1.5-1.5c0.1-0.1,0.2-0.1,0.2-0.2h0.1
	c0,0.1,0.1,0.1,0.1,0.2c0.3,1.2,0.5,2.5,0.3,3.7c-0.2,1.7-0.8,3.2-1.7,4.5c-0.6,0.9-1.5,1.8-2.4,2.4c-0.6,0.4-1.2,0.7-1.8,0.9
	C260.8,87.8,259.6,88.1,258.4,88.2z M261.6,72.9c-1.5-0.8-3.1-1.1-4.7-0.7c-2.7,0.5-5.1,3.1-5.1,6.4c0,1,0.3,2.3,0.9,3.3
	c0,0.1,0.1,0.1,0.1,0.2h0.1c0.1-0.1,0.2-0.2,0.3-0.3c1.1-1.1,2.2-2.2,3.3-3.3c1.7-1.7,3.4-3.4,5-5c0.1-0.1,0.2-0.3,0.3-0.4"/>
<path class="st0" d="M239.7,54.8c0-8.5,0-16.9,0-25.4c0-0.1,0-0.2,0-0.3c0-1.1-0.1-1,1-1c0.6,0,1.1,0,1.7,0c0.1,0,0.2,0.1,0.2,0.2
	c0,0.2,0,0.5,0,0.7c0,12.4,0,24.7,0,37.1c0,4.6,0,9.1,0,13.7c0,0.5,0,1.1,0.1,1.6c0.2,1,0.6,1.9,1.4,2.6c0.4,0.4,1,0.7,1.5,0.9
	c0.5,0.2,0.9,0.3,1.4,0.3c1.1,0.1,1-0.1,1,1.1c0,0.5,0,1,0,1.5c0,0.2-0.1,0.3-0.3,0.3c-1.4-0.1-2.8-0.3-4-1
	c-2.1-1.1-3.4-2.8-3.9-5.1c-0.1-0.6-0.2-1.1-0.2-1.7c0-0.3,0-0.7,0-1C239.7,71.3,239.7,63.1,239.7,54.8L239.7,54.8z"/>
<path class="st0" d="M225.9,83c0,1.5,0,2.9,0,4.4c0,0.2,0,0.4,0,0.6c0,0.1-0.1,0.2-0.2,0.3c0,0,0,0-0.1,0c-0.8,0-1.5,0-2.3,0
	c-0.3,0-0.3-0.1-0.3-0.3s0-0.3,0-0.5c0-0.4,0-0.9,0-1.3c0-0.1,0.1-0.3-0.1-0.3c-0.1-0.1-0.2,0.1-0.3,0.1c-0.1,0.1-0.3,0.2-0.4,0.3
	c-1.3,1-2.7,1.7-4.4,1.9c-4,0.6-7.8-1.3-9.7-4.5c-0.7-1.1-1.1-2.2-1.3-3.5c-0.4-2.6,0.2-5,1.7-7.2c1.6-2.1,3.6-3.4,6.2-3.8
	c4.1-0.6,7.7,1.3,9.7,4.5c1,1.6,1.4,3.3,1.4,5.1C225.9,80.1,225.9,81.5,225.9,83L225.9,83z M216.3,85.3c3.4,0,6.7-2.7,6.7-6.8
	c0-3.5-3-6.5-6.6-6.5c-3.7,0-6.7,2.9-6.7,6.6C209.6,82.2,212.6,85.2,216.3,85.3z"/>
<path class="st0" d="M271.6,81.8c0-1.6,0-3.2,0-4.8c0-0.7,0-1.4,0.2-2.1c0.5-2.6,2.1-4.4,4.6-5.4c1-0.4,2.1-0.6,3.2-0.7
	c0.1,0,0.1,0,0.2,0s0.2,0.1,0.2,0.2v0.1c0,0.7,0,1.5,0,2.2c0,0.1-0.1,0.2-0.2,0.2c-0.6,0-1.2,0.1-1.8,0.3c-0.7,0.2-1.4,0.5-1.9,1.1
	c-0.8,0.7-1.2,1.6-1.3,2.6c-0.1,0.5-0.1,1.1-0.1,1.6c0,3.4,0,6.8,0,10.2c0,0.2,0,0.4,0,0.6s-0.1,0.3-0.3,0.3c-0.8,0-1.6,0-2.4,0
	h-0.1l-0.1-0.1c0-0.2,0-0.4,0-0.6C271.6,85.6,271.6,83.7,271.6,81.8L271.6,81.8z"/>
<ellipse class="st0" cx="85.9" cy="70.1" rx="13.6" ry="13.6"/>
<path class="st0" d="M72.1,14.3V56c3.5-3.4,8.4-5.6,13.7-5.6c10.9,0,19.7,8.8,19.7,19.7s-8.8,19.7-19.7,19.7
	C75.6,89.8,67.2,82,66.2,72h-0.1v-1.5c0-0.1,0-0.3,0-0.4s0-0.3,0-0.4V13.3c-2.3-0.3-4.6-0.4-7-0.4c-31.7,0-57.3,25.7-57.3,57.3
	s25.7,57.3,57.3,57.3s57.3-25.7,57.3-57.3C116.5,43,97.6,20.2,72.1,14.3z"/>
<path class="st0" d="M72.1,0h-6v13.2c2,0.2,4.1,0.6,6,1V0z"/>
<g class="st1">
	<path class="st2" d="M24.8,109.6c-0.5,0.6-1.3,0.9-2.5,0.9c-0.9,0-1.6-0.3-2.2-1s-0.9-1.5-0.9-2.5s0.3-1.8,0.9-2.5s1.4-1,2.2-1
		c0.6,0,1.1,0.1,1.5,0.3c0.3,0.1,0.5,0.3,0.9,0.6l-0.5,0.6c-0.5-0.5-1.1-0.7-1.9-0.7c-0.7,0-1.3,0.3-1.7,0.8c-0.5,0.6-0.7,1.2-0.7,2
		s0.2,1.4,0.7,2s1.1,0.8,1.7,0.8c0.9,0,1.5-0.2,1.9-0.7L24.8,109.6z"/>
	<path class="st2" d="M35.5,106.9c0,1-0.3,1.8-0.9,2.5c-0.6,0.7-1.4,1-2.3,1c-0.9,0-1.6-0.3-2.2-1s-0.9-1.5-0.9-2.5s0.3-1.8,0.9-2.5
		s1.4-1,2.2-1c0.9,0,1.6,0.3,2.3,1S35.5,105.9,35.5,106.9z M34.7,106.9c0-0.8-0.2-1.4-0.7-2s-1.1-0.8-1.7-0.8
		c-0.7,0-1.3,0.3-1.7,0.8c-0.5,0.6-0.7,1.2-0.7,2s0.2,1.4,0.7,2s1.1,0.8,1.7,0.8c0.7,0,1.3-0.3,1.7-0.8
		C34.5,108.3,34.7,107.7,34.7,106.9z"/>
	<path class="st2" d="M40.7,106.9v3.1H40v-6.6h0.7v1.2c0.6-0.8,1.3-1.2,2.2-1.2c0.8,0,1.5,0.3,2.1,1s0.9,1.5,0.9,2.5v3h-0.7v-3
		c0-0.8-0.2-1.4-0.6-2c-0.4-0.6-1-0.8-1.6-0.8s-1.2,0.3-1.6,0.8C40.9,105.5,40.7,106.1,40.7,106.9z"/>
	<path class="st2" d="M50.6,104.1h-0.5v-0.7h0.5v-1.6h0.7v1.6h1.6v0.7h-1.6v3.6c0,1.1,0.4,1.7,1.1,1.7v0.7c-1.2,0-1.9-0.8-1.9-2.4
		v-3.6C50.5,104.1,50.6,104.1,50.6,104.1z"/>
	<path class="st2" d="M57.9,108c0.2,0.5,0.5,0.9,0.9,1.2s0.9,0.5,1.4,0.5c0.9,0,1.5-0.2,1.9-0.7l0.5,0.5c-0.5,0.6-1.3,0.9-2.5,0.9
		c-0.9,0-1.6-0.3-2.2-1s-0.9-1.5-0.9-2.5s0.3-1.8,0.9-2.5s1.4-1,2.2-1c0.7,0,1.4,0.2,2,0.7s1,1,1.1,1.7c0,0.3-0.3,0.6-1,0.9
		L57.9,108z M57.8,107.3l4.2-1.4c0.4-0.1,0.5-0.2,0.5-0.3l-0.1-0.2c-0.2-0.4-0.4-0.7-0.9-1c-0.4-0.2-0.8-0.4-1.3-0.4
		c-0.7,0-1.3,0.3-1.7,0.8c-0.5,0.6-0.7,1.2-0.7,2C57.7,107,57.7,107.1,57.8,107.3z"/>
	<path class="st2" d="M73.7,109.9H73v-3c0-0.8-0.2-1.4-0.6-2s-1-0.8-1.6-0.8s-1.2,0.3-1.6,0.8c-0.4,0.6-0.6,1.2-0.6,2v3.1h-0.7v-6.6
		h0.7v1.2c0.6-0.8,1.3-1.2,2.2-1.2c0.6,0,1.1,0.2,1.5,0.5c0.5,0.4,0.8,0.8,1.1,1.4c0.2-0.6,0.6-1,1-1.4s1-0.5,1.5-0.5
		c0.8,0,1.5,0.3,2.1,1s0.9,1.5,0.9,2.5v3h-0.7v-3c0-0.8-0.2-1.4-0.6-2s-1-0.8-1.6-0.8c-0.5,0-1,0.2-1.4,0.6s-0.7,0.9-0.9,1.4
		C73.7,106.1,73.7,109.9,73.7,109.9z"/>
	<path class="st2" d="M84.6,109.2v3.4h-0.7v-9.3h0.7v1.3c0.6-0.8,1.4-1.3,2.4-1.3c0.9,0,1.6,0.3,2.3,1c0.6,0.7,0.9,1.5,0.9,2.5
		s-0.3,1.8-0.9,2.5s-1.4,1-2.3,1C86,110.5,85.2,110,84.6,109.2z M84.6,106.5v0.8c0.1,0.7,0.4,1.3,0.8,1.7s1,0.7,1.6,0.7
		c0.7,0,1.3-0.3,1.7-0.8c0.5-0.6,0.7-1.2,0.7-2s-0.2-1.4-0.7-2s-1.1-0.8-1.7-0.8s-1.2,0.2-1.6,0.7S84.7,105.8,84.6,106.5z"/>
	<path class="st2" d="M100.9,106.9c0,1-0.3,1.8-0.9,2.5s-1.4,1-2.3,1s-1.6-0.3-2.2-1s-0.9-1.5-0.9-2.5s0.3-1.8,0.9-2.5s1.4-1,2.2-1
		c0.9,0,1.6,0.3,2.3,1S100.9,105.9,100.9,106.9z M100.1,106.9c0-0.8-0.2-1.4-0.7-2s-1.1-0.8-1.7-0.8c-0.7,0-1.3,0.3-1.7,0.8
		c-0.5,0.6-0.7,1.2-0.7,2s0.2,1.4,0.7,2s1.1,0.8,1.7,0.8c0.7,0,1.3-0.3,1.7-0.8C99.9,108.3,100.1,107.7,100.1,106.9z"/>
	<path class="st2" d="M106.1,106.9v3.1h-0.7v-6.6h0.7v1.2c0.6-0.8,1.3-1.3,2.2-1.3c0.3,0,0.7,0,1,0.1l-0.2,0.7
		c-0.2-0.1-0.4-0.1-0.7-0.1c-0.6,0-1.1,0.3-1.6,0.9C106.3,105.5,106.1,106.1,106.1,106.9z"/>
	<path class="st2" d="M117.6,106.4v-0.9c0-0.4-0.2-0.8-0.6-1.1s-0.8-0.5-1.3-0.5c-0.4,0-0.8,0.1-1.2,0.4l-0.4-0.6
		c0.5-0.3,1-0.5,1.6-0.5c0.7,0,1.4,0.2,1.9,0.7s0.8,1,0.8,1.6c0,0.3,0,0.9,0,1.6s0,1.2,0,1.6c0,0.5,0.2,0.7,0.6,0.8l-0.1,0.7
		c-0.7,0-1.1-0.3-1.3-0.8c-0.5,0.6-1.2,0.9-2.1,0.9c-0.7,0-1.3-0.2-1.8-0.7s-0.8-1-0.8-1.7c0-0.6,0.3-1.2,0.8-1.6
		c0.5-0.5,1.1-0.7,1.9-0.7C116.4,105.6,117,105.9,117.6,106.4z M117.5,107.9c0-0.4-0.2-0.8-0.6-1.1c-0.4-0.3-0.8-0.5-1.4-0.5
		c-0.5,0-1,0.2-1.3,0.5s-0.6,0.7-0.6,1.1s0.2,0.8,0.5,1.1c0.4,0.3,0.8,0.5,1.3,0.5s1-0.2,1.4-0.5
		C117.3,108.7,117.5,108.4,117.5,107.9z"/>
	<path class="st2" d="M123.9,106.9v3.1h-0.7v-6.6h0.7v1.2c0.6-0.8,1.3-1.3,2.2-1.3c0.3,0,0.7,0,1,0.1l-0.2,0.7
		c-0.2-0.1-0.4-0.1-0.7-0.1c-0.6,0-1.1,0.3-1.6,0.9C124.1,105.5,123.9,106.1,123.9,106.9z"/>
	<path class="st2" d="M137.2,103.5c-0.7,1.6-1.7,4-3.2,7.5c-0.2,0.5-0.6,0.9-1,1.1c-0.5,0.2-1.2,0.3-2.1,0.3v-0.7
		c0.8,0,1.3,0,1.7-0.2s0.6-0.4,0.8-0.8s0.3-0.8,0.5-1.1l-2.5-6.2l0.6-0.3l2.3,5.5l2.4-5.4L137.2,103.5z"/>
	<path class="st2" d="M146.8,109.2l-0.1,1.1c-0.8-0.1-1.3-0.3-1.5-0.7c-0.6,0.5-1.2,0.7-2,0.7s-1.4-0.2-2-0.7
		c-0.5-0.5-0.8-1-0.8-1.7c0-0.6,0.3-1.2,0.8-1.7s1.2-0.7,2-0.7c0.7,0,1.3,0.2,1.9,0.6v-0.5c0-0.4-0.2-0.7-0.5-0.9
		c-0.3-0.3-0.8-0.4-1.2-0.4s-0.8,0.1-1.3,0.4l-0.6-0.9c0.7-0.4,1.3-0.5,1.8-0.5c0.8,0,1.5,0.2,2,0.7s0.8,1,0.8,1.7
		c0,0.3,0,0.8,0,1.5s0,1.2,0,1.5C146.2,109,146.4,109.2,146.8,109.2z M145,107.9c0-0.4-0.2-0.7-0.5-0.9s-0.8-0.4-1.2-0.4
		s-0.9,0.1-1.2,0.4s-0.5,0.6-0.5,0.9s0.2,0.7,0.5,0.9c0.3,0.3,0.7,0.4,1.2,0.4s0.9-0.1,1.2-0.4S145,108.2,145,107.9z"/>
	<path class="st2" d="M155.3,103.5l-0.3,1c-0.3-0.1-0.6-0.1-0.9-0.1c-0.6,0-1.1,0.3-1.5,0.8s-0.6,1.1-0.6,1.8v3.1h-1.1v-6.6h1.1v0.8
		c0.6-0.6,1.3-0.9,2.1-0.9C154.5,103.3,154.9,103.3,155.3,103.5z"/>
	<path class="st2" d="M163,104.4h-1.6v3.3c0,0.4,0.1,0.8,0.2,1c0.2,0.3,0.5,0.5,1,0.5v1c-1.5,0-2.2-0.8-2.2-2.5v-3.3h-0.5v-1h0.5
		v-1.5h1.1v1.5h1.6v1H163z"/>
</g>
<g>
	<path class="st0" d="M302.4,70.4c-2,4.4-5,11.2-9.1,20.3c-0.7,1.6-1.7,2.6-2.9,3.2c-1.4,0.7-3.7,1-6.7,0.9l0.1-2.8
		c2.2,0,3.8-0.1,4.8-0.4c0.9-0.3,1.6-1,2.1-2c0.2-0.4,0.6-1.3,1.2-2.7l-7.1-16.7l2.8-1l6,14l6.3-13.9L302.4,70.4z"/>
</g>
<path class="st0" d="M162.4,88.2c-0.7,0-1.3,0-2-0.2c-0.8-0.2-1.5-0.4-2.2-0.8c-1.7-0.8-3.1-2.2-4-3.8c-0.5-0.9-0.9-2-1.1-3
	c-1-5.4,2.6-10.1,7.3-11.1c2.3-0.5,4.4-0.2,6.5,0.9c0.9,0.5,1.7,1.1,2.5,1.7c0.3,0.2,0.5,0.5,0.7,0.8c0.1,0.1,0.1,0.3,0,0.4
	c-0.2,0.2-0.3,0.4-0.5,0.5c-3.3,3.3-6.6,6.7-10,10c-0.2,0.2-0.3,0.4-0.5,0.5c-0.1,0.1-0.1,0.2,0.1,0.3c0.3,0.2,0.7,0.4,1,0.5
	c3.1,1.2,6.5-0.1,8.1-2.8c0.6-1.1,1-2.2,0.9-3.5c0-0.8-0.1-0.6,0.5-1.2c0.5-0.5,1-1,1.5-1.5c0.1-0.1,0.2-0.1,0.2-0.2h0.1
	c0,0.1,0.1,0.1,0.1,0.2c0.3,1.2,0.5,2.5,0.3,3.7c-0.2,1.7-0.8,3.2-1.7,4.5c-0.6,0.9-1.5,1.8-2.4,2.4c-0.6,0.4-1.2,0.7-1.8,0.9
	C164.8,87.9,163.6,88.1,162.4,88.2z M165.6,72.9c-1.5-0.8-3.1-1.1-4.7-0.7c-2.7,0.5-5.1,3.1-5.1,6.4c0,1,0.3,2.3,0.9,3.3
	c0,0.1,0.1,0.1,0.1,0.2h0.1c0.1-0.1,0.2-0.2,0.3-0.3c1.1-1.1,2.2-2.2,3.3-3.3c1.7-1.7,3.4-3.4,5-5c0.1-0.1,0.2-0.3,0.3-0.4"/>
<path class="st0" d="M132.3,75.4c0-1.8,0-3.6,0-5.3c0-0.2,0-0.4,0-0.7c0-0.1,0.1-0.2,0.2-0.2c0.1,0,0.1,0,0.2,0c0.7,0,1.4,0,2.1,0
	c0.1,0,0.1,0,0.2,0c0.1,0,0.2,0.1,0.2,0.2c0,0.2,0,0.5,0,0.7c0,3.2,0,6.5,0,9.7c0,0.5,0,1,0.1,1.5c0,0.3,0.1,0.6,0.2,0.9
	c0.4,1.2,1.2,2.1,2.4,2.6c0.6,0.3,1.3,0.4,2,0.5c1,0.1,1.9,0,2.9-0.3c0.3-0.1,0.6-0.2,0.9-0.4c0.9-0.5,1.5-1.2,1.8-2.2
	c0.2-0.5,0.3-0.9,0.3-1.4c0-0.4,0-0.8,0-1.3c0-3.2,0-6.4,0-9.6c0-0.2,0-0.5,0-0.7c0-0.1,0.1-0.2,0.2-0.2c0.1,0,0.2,0,0.4,0
	c0.6,0,1.1,0,1.7,0c0.1,0,0.2,0,0.4,0c0.1,0,0.2,0.1,0.2,0.2c0,0.2,0,0.3,0,0.5c0,3.4,0,6.8,0,10.2c0,0.8-0.1,1.6-0.3,2.3
	c-0.6,2.3-2,4-4.2,4.9c-1.1,0.5-2.2,0.7-3.3,0.7c-1.3,0.1-2.7-0.1-3.9-0.6c-1.4-0.5-2.6-1.4-3.5-2.7c-0.7-1.1-1.1-2.2-1.3-3.5
	c-0.1-0.6-0.1-1.1-0.1-1.7C132.3,78.3,132.3,76.8,132.3,75.4z"/>
<g>
	<path d="M32.3,113.4c-0.9,0.8-2.1,1.1-3.7,1.1c-1.4,0-2.6-0.5-3.6-1.6c-1-1-1.5-2.3-1.5-3.8c0-1.5,0.5-2.7,1.5-3.8
		c1-1,2.2-1.6,3.6-1.6c1.2,0,2.4,0.4,3.4,1.3l-0.8,0.8c-0.8-0.7-1.7-1-2.6-1c-1.1,0-2.1,0.4-2.8,1.3s-1.2,1.8-1.2,3
		c0,1.2,0.4,2.2,1.2,3c0.8,0.8,1.7,1.3,2.8,1.3c1.3,0,2.3-0.3,3-0.9L32.3,113.4z"/>
	<path d="M43,111.1c0,1-0.3,1.9-1,2.6c-0.7,0.7-1.5,1.1-2.4,1.1c-0.9,0-1.8-0.4-2.4-1.1c-0.7-0.7-1-1.6-1-2.6c0-1,0.3-1.9,1-2.6
		c0.7-0.7,1.5-1.1,2.4-1.1c1,0,1.8,0.4,2.4,1.1S43,110,43,111.1z M41.9,111.1c0-0.7-0.2-1.3-0.7-1.8s-1-0.8-1.7-0.8
		c-0.6,0-1.2,0.3-1.7,0.8c-0.5,0.5-0.7,1.1-0.7,1.8c0,0.7,0.2,1.3,0.7,1.8c0.5,0.5,1,0.8,1.7,0.8c0.7,0,1.2-0.3,1.7-0.8
		S41.9,111.8,41.9,111.1z"/>
	<path d="M53.4,114.2h-1.1v-3.2c0-0.7-0.2-1.3-0.6-1.8c-0.4-0.5-0.9-0.8-1.5-0.8c-0.6,0-1.1,0.3-1.5,0.8c-0.4,0.5-0.6,1.1-0.6,1.8
		v3.2H47v-6.8h1.1v0.9c0.6-0.6,1.3-0.9,2.1-0.9c0.9,0,1.6,0.4,2.3,1.1c0.6,0.7,1,1.6,1,2.6V114.2z"/>
	<path d="M60.7,108.4h-1.6v3.4c0,0.4,0.1,0.8,0.2,1c0.2,0.3,0.5,0.5,1,0.5v1.1c-1.5,0-2.3-0.9-2.3-2.6v-3.4h-0.5v-1.1H58v-1.6h1.1
		v1.6h1.6V108.4z"/>
	<path d="M71.2,109.9c0,0.2-0.1,0.4-0.3,0.5c-0.2,0.2-0.5,0.4-0.9,0.5l-4.2,1.3c0.4,0.9,1.1,1.4,2.1,1.4c0.9,0,1.5-0.2,2-0.7
		l0.8,0.7c-0.7,0.7-1.6,1.1-2.8,1.1c-0.9,0-1.8-0.4-2.4-1.1c-0.7-0.7-1-1.6-1-2.6c0-1,0.3-1.9,1-2.6c0.7-0.7,1.5-1.1,2.4-1.1
		c0.8,0,1.5,0.2,2.1,0.7C70.7,108.6,71.1,109.2,71.2,109.9z M70,109.7c-0.2-0.4-0.4-0.7-0.8-0.9c-0.4-0.2-0.8-0.3-1.3-0.3
		c-0.6,0-1.2,0.3-1.7,0.8c-0.5,0.5-0.7,1.1-0.7,1.8c0,0.1,0,0.1,0,0.2l4.1-1.3C69.9,109.9,70,109.8,70,109.7L70,109.7z"/>
	<path d="M87.2,114.2H86v-3.2c0-0.7-0.2-1.3-0.6-1.8c-0.4-0.5-0.9-0.8-1.5-0.8c-0.5,0-0.9,0.2-1.3,0.5c-0.4,0.3-0.7,0.8-0.8,1.3v4
		h-1.1v-3.2c0-0.7-0.2-1.3-0.6-1.8c-0.4-0.5-0.9-0.8-1.5-0.8c-0.6,0-1.1,0.3-1.5,0.8c-0.4,0.5-0.6,1.1-0.6,1.8v3.2h-1.1v-6.8h1.1
		v0.9c0.6-0.6,1.3-0.9,2.1-0.9c0.5,0,1.1,0.2,1.5,0.5c0.5,0.3,0.9,0.7,1.2,1.2c0.3-0.5,0.7-0.9,1.1-1.2c0.5-0.3,1-0.5,1.5-0.5
		c0.9,0,1.6,0.4,2.3,1.1c0.6,0.7,1,1.6,1,2.6V114.2z"/>
	<path d="M98.5,111.1c0,1-0.3,1.9-1,2.6s-1.5,1.1-2.4,1.1c-0.9,0-1.7-0.3-2.3-0.9v3.1h-1.1v-9.5h1.1v1c0.7-0.6,1.4-1,2.3-1
		c1,0,1.8,0.4,2.4,1.1S98.5,110.1,98.5,111.1z M97.4,111.1c0-0.7-0.2-1.3-0.7-1.8c-0.5-0.5-1-0.8-1.7-0.8c-0.6,0-1.1,0.2-1.5,0.6
		s-0.7,1-0.8,1.6v0.8c0.1,0.6,0.3,1.2,0.8,1.6c0.4,0.4,0.9,0.6,1.5,0.6c0.7,0,1.2-0.3,1.7-0.8C97.2,112.4,97.4,111.8,97.4,111.1z"/>
	<path d="M109.4,111.1c0,1-0.3,1.9-1,2.6c-0.7,0.7-1.5,1.1-2.4,1.1c-0.9,0-1.8-0.4-2.4-1.1c-0.7-0.7-1-1.6-1-2.6c0-1,0.3-1.9,1-2.6
		c0.7-0.7,1.5-1.1,2.4-1.1c1,0,1.8,0.4,2.4,1.1S109.4,110,109.4,111.1z M108.3,111.1c0-0.7-0.2-1.3-0.7-1.8c-0.5-0.5-1-0.8-1.7-0.8
		c-0.6,0-1.2,0.3-1.7,0.8c-0.5,0.5-0.7,1.1-0.7,1.8c0,0.7,0.2,1.3,0.7,1.8c0.5,0.5,1,0.8,1.7,0.8c0.7,0,1.2-0.3,1.7-0.8
		C108,112.4,108.3,111.8,108.3,111.1z"/>
	<path d="M117.8,107.5l-0.3,1c-0.3-0.1-0.6-0.2-0.9-0.2c-0.6,0-1.1,0.3-1.5,0.8c-0.4,0.5-0.6,1.1-0.6,1.8v3.2h-1.1v-6.8h1.1v0.9
		c0.6-0.6,1.3-0.9,2.1-0.9C117,107.3,117.4,107.4,117.8,107.5z"/>
	<path d="M127.5,113.4l-0.1,1.1c-0.8-0.1-1.4-0.3-1.6-0.7c-0.6,0.5-1.3,0.7-2.1,0.7c-0.8,0-1.5-0.2-2.1-0.7c-0.6-0.5-0.8-1-0.8-1.7
		c0-0.7,0.3-1.2,0.8-1.7c0.6-0.5,1.2-0.7,2.1-0.7c0.7,0,1.3,0.2,1.9,0.6v-0.5c0-0.4-0.2-0.7-0.5-1c-0.4-0.3-0.8-0.4-1.3-0.4
		c-0.4,0-0.9,0.1-1.3,0.4l-0.6-0.9c0.7-0.4,1.3-0.6,1.9-0.6c0.8,0,1.5,0.2,2.1,0.7c0.6,0.5,0.8,1.1,0.8,1.7c0,0.3,0,0.8,0,1.5
		c0,0.7,0,1.2,0,1.6C126.8,113.2,127,113.4,127.5,113.4z M125.6,112c0-0.4-0.2-0.7-0.5-1c-0.4-0.3-0.8-0.4-1.3-0.4s-0.9,0.1-1.3,0.4
		c-0.3,0.3-0.5,0.6-0.5,1s0.2,0.7,0.5,1c0.4,0.3,0.8,0.4,1.3,0.4s0.9-0.1,1.3-0.4C125.4,112.7,125.6,112.4,125.6,112z"/>
	<path d="M135.7,107.5l-0.3,1c-0.3-0.1-0.6-0.2-0.9-0.2c-0.6,0-1.1,0.3-1.5,0.8c-0.4,0.5-0.6,1.1-0.6,1.8v3.2h-1.1v-6.8h1.1v0.9
		c0.6-0.6,1.3-0.9,2.1-0.9C134.8,107.3,135.2,107.4,135.7,107.5z"/>
	<path d="M146.3,107.7c-0.7,1.6-1.9,4.1-3.4,7.5c-0.3,0.6-0.6,1-1.1,1.2c-0.5,0.2-1.4,0.4-2.5,0.3l0-1c0.8,0,1.4,0,1.8-0.2
		c0.3-0.1,0.6-0.4,0.8-0.7c0.1-0.2,0.2-0.5,0.4-1l-2.6-6.2l1-0.4l2.2,5.2l2.4-5.1L146.3,107.7z"/>
	<path d="M156.2,113.4l-0.1,1.1c-0.8-0.1-1.4-0.3-1.6-0.7c-0.6,0.5-1.3,0.7-2.1,0.7c-0.8,0-1.5-0.2-2.1-0.7c-0.6-0.5-0.8-1-0.8-1.7
		c0-0.7,0.3-1.2,0.8-1.7c0.6-0.5,1.2-0.7,2.1-0.7c0.7,0,1.3,0.2,1.9,0.6v-0.5c0-0.4-0.2-0.7-0.5-1c-0.4-0.3-0.8-0.4-1.3-0.4
		c-0.4,0-0.9,0.1-1.3,0.4l-0.6-0.9c0.7-0.4,1.3-0.6,1.9-0.6c0.8,0,1.5,0.2,2.1,0.7c0.6,0.5,0.8,1.1,0.8,1.7c0,0.3,0,0.8,0,1.5
		c0,0.7,0,1.2,0,1.6C155.5,113.2,155.7,113.4,156.2,113.4z M154.3,112c0-0.4-0.2-0.7-0.5-1c-0.4-0.3-0.8-0.4-1.3-0.4
		s-0.9,0.1-1.3,0.4c-0.3,0.3-0.5,0.6-0.5,1s0.2,0.7,0.5,1c0.4,0.3,0.8,0.4,1.3,0.4s0.9-0.1,1.3-0.4
		C154.1,112.7,154.3,112.4,154.3,112z"/>
	<path d="M164.4,107.5l-0.3,1c-0.3-0.1-0.6-0.2-0.9-0.2c-0.6,0-1.1,0.3-1.5,0.8c-0.4,0.5-0.6,1.1-0.6,1.8v3.2h-1.1v-6.8h1.1v0.9
		c0.6-0.6,1.3-0.9,2.1-0.9C163.5,107.3,163.9,107.4,164.4,107.5z"/>
	<path d="M171.6,108.4H170v3.4c0,0.4,0.1,0.8,0.2,1c0.2,0.3,0.5,0.5,1,0.5v1.1c-1.5,0-2.3-0.9-2.3-2.6v-3.4h-0.5v-1.1h0.5v-1.6h1.1
		v1.6h1.6V108.4z"/>
</g>
</svg>
